<?xml version="1.0" encoding="utf-8"?>
<!-- Generator: Adobe Illustrator 19.0.0, SVG Export Plug-In . SVG Version: 6.00 Build 0)  -->
<svg version="1.1" id="Layer_1" xmlns="http://www.w3.org/2000/svg" xmlns:xlink="http://www.w3.org/1999/xlink" x="0px" y="0px"
	 viewBox="-389 111 500 500" style="enable-background:new -389 111 500 500;" xml:space="preserve">
<style type="text/css">
	.st0{fill:#F3E517;}
	.st1{fill:#FF7901;}
	.st2{fill:#FF0101;}
	.st3{fill:none;}
	.st4{fill:#0000CC;}
</style>
<g>
	<path id="XMLID_3_" class="st0" d="M-147.1,299.6c-6.5,16.4-12.8,43.5-20.5,12.3c-5.7-22.1-17.9,13.9-26.8,20
		c-17.9,13.6-27.8,32.8-35.7,53.3c-21-17.9-13.1,10.8-14.4,24.9c1.1,21-2.3,44.1,1.7,63.9c16.7,14.5,28.8,37.5,53.6,37.2
		c17,5.9,14.9-19.8,30.3,1.5c14.2,19.4,22.9,8.1,32.2-1.5c13.5,20.7,17.7-24.8,29.1-4.4c17.6,6.9,33.4,10.1,36.3-13.1
		c3.6-18.4,35.2-18.8,27.8-40.9c-1-22.9,2.1-47.5-1.5-69.4c-12-9.3-21.2-30.9-34.8-32.8c-16.9,8.2-10.4-27.9-17.3-38.5
		c-2.3-27.9-8.2-15.3-14.7,3.8c-3.6,27.5-18.7,14.4-26.4-3.6C-135.2,306.5-143,276-147.1,299.6z"/>
	<polygon class="st1" points="-236,447.1 -230.2,452.8 -221.7,481.3 -218.8,447.1 -210.3,489.9 -210.3,435.7 -204.6,450 -196,489.9 
		-196,435.7 -190.3,441.4 -181.8,489.9 -173.2,424.3 -154.4,498.2 -153.3,452.8 -147.6,435.7 -141.9,507 -124.7,435.7 -119,495.6 
		-104.8,432.9 -90.5,501.3 -87.7,450 -79.1,432.9 -76.3,498.5 -62,435.7 -53.5,464.2 -50.6,438.6 -42,455.7 -42,401.5 -50.6,424.3 
		-53.5,375.8 -59.2,412.9 -64.9,401.5 -67.7,361.6 -82,415.8 -84.8,404.4 -93.4,318.8 -101.9,392.9 -107.6,415.8 -119,338.8 
		-130.4,404.4 -136.1,421.5 -139,303.7 -156.1,435.7 -173.2,316 -181.8,418.6 -187.5,407.2 -193.2,338.8 -196,407.2 -204.6,427.2 
		-210.3,358.7 -216,412.9 -224.5,398.6 -224.5,438.6 -236,395.8 	"/>
	<path id="XMLID_8_" class="st2" d="M-238.8,407.2l22.8,14.3l8.6-25.7l14.3,17.1l17.1-28.5l5.7,34.2l5.7-22.8l8.6,17.1l2.9-17.1
		c0,0,8.6,22.8,8.6,20c0-2.9,11.4-42.8,11.4-42.8l11.4,37.1l17.1-34.2L-96,413l14.3-25.7l8.6,25.7l14.3-14.3l17.1,17.1v22.8
		l-11.4,8.6l-17.1-5.7l-11.4-5.7l-2.9,28.5l-5.7-28.5l-11.4,25.7l-17.4-25.8l-5.7,25.7l-11.4-17.1l-14.3,37.1l-8.6-42.8l-17.1,8.6
		l-11.4-17.2l-5.7,28.5l-11.4-14.3l-11.4,14.3l-5.7-8.6l-17.1,2.9V407.2z"/>
	<path class="st3" d="M-139,198.7c-37.8,0-72.3,11.8-97.8,31.6c-25.4,19.8-42,48.2-42,79.8v11.4c-25.3,12.8-42.8,46.4-42.8,85.7
		c0,50.4,28.7,91.3,65.6,91.3V310.1c0-23.6,12.2-45.4,33.2-61.8s50.7-26.8,83.7-26.8s62.7,10.5,83.7,26.8
		c21,16.4,33.2,38.1,33.2,61.8v188.4c36.9,0,65.6-40.9,65.6-91.3c0-39.4-17.5-72.9-42.8-85.7v-11.4c0-31.6-16.5-59.9-42-79.8
		C-66.7,210.5-101.2,198.7-139,198.7z M-247.4,318.8v179.6c5.7,0,11.4-2.9,14.3-8.6V324.5C-236,321.7-241.7,318.8-247.4,318.8z
		 M-30.6,318.8c-5.7,0-11.4,2.9-14.3,5.7v165.4c2.9,5.7,8.6,8.6,14.3,8.6V318.8z"/>
	<path id="XMLID_17_" class="st4" d="M-139,198.7c-37.8,0-72.3,11.8-97.8,31.6c-25.4,19.8-42,48.2-42,79.8v11.4
		c-25.3,12.8-42.8,46.4-42.8,85.7c0,50.4,28.7,91.3,65.6,91.3V310.1c0-23.6,12.2-45.4,33.2-61.8s50.7-26.8,83.7-26.8
		s62.7,10.5,83.7,26.8c21,16.4,33.2,38.1,33.2,61.8v188.4c36.9,0,65.6-40.9,65.6-91.3c0-39.4-17.5-72.9-42.8-85.7v-11.4
		c0-31.6-16.5-59.9-42-79.8C-66.7,210.5-101.2,198.7-139,198.7z M-247.4,318.8v179.6c5.7,0,11.4-2.9,14.3-8.6V324.5
		C-236,321.7-241.7,318.8-247.4,318.8z M-30.6,318.8c-5.7,0-11.4,2.9-14.3,5.7v165.4c2.9,5.7,8.6,8.6,14.3,8.6V318.8z"/>
</g>
</svg>
