<?xml version="1.0" encoding="utf-8"?>
<!-- Generator: Adobe Illustrator 22.0.1, SVG Export Plug-In . SVG Version: 6.00 Build 0)  -->
<svg version="1.1" id="ae_x5F_cc_x5F_app_x5F_RGB.svg"
	 xmlns="http://www.w3.org/2000/svg" xmlns:xlink="http://www.w3.org/1999/xlink" x="0px" y="0px" width="240px" height="234px"
	 viewBox="0 0 240 234" style="enable-background:new 0 0 240 234;" xml:space="preserve">
<rect style="fill:#00E4BB;" width="240" height="234"/>
<rect x="10" y="10" style="fill:#002620;" width="220" height="214"/>
<path style="fill:#00E4BB;" d="M66.6,135l-7.7,28.6c-0.2,0.8-0.5,1.4-1.5,1.4H43.1c-1,0-1.1-0.3-1-1.4l27.7-96.4
	c0.5-1.8,0.8-3.3,1-8.2c0-0.7,0.3-1,0.8-1H92c0.6,0,1,0.2,1.1,1l31.1,104.7c0.2,0.8,0,1.3-0.8,1.3h-16.1c-0.8,0-1.3-0.6-1.4-1.2
	l-8-28.8H66.6z M93.8,119c-2.7-10.8-9.2-34.3-11.6-45.7h-0.2C80,84.7,74.8,103.9,70.8,119H93.8z M194,149.3c0,1.1,0.2,4.5,0.5,10
	c0,0.6-0.1,1-0.7,1.1c-8.5,3.2-18.2,6.6-30.1,6.6c-14.6,0-28.7-5.6-28.7-28.2V87.3c0-0.8,0.3-1.3,1.1-1.3h15.7
	c0.8,0,1.1,0.5,1.1,1.3v49.4c0,9.5,4.1,14.6,14.1,14.6c4,0,7.4-0.8,9.9-1.8V87.3c0-0.8,0.3-1.3,1.1-1.3h14.7c1,0,1.1,0.5,1.1,1.3
	L194,149.3L194,149.3z"/>
</svg>
