<svg xmlns="http://www.w3.org/2000/svg" viewBox="0 0 696 696"><defs><style>.cls-1{fill:#fff;}.cls-2{fill:#0acf83;}.cls-3{fill:#a259ff;}.cls-4{fill:#f24e1e;}.cls-5{fill:#ff7262;}.cls-6{fill:#1abcfe;}</style></defs><title>Figma</title><g id="Layer_2" data-name="Layer 2"><g id="Layer_1-2" data-name="Layer 1"><rect class="cls-1" width="696" height="696" rx="347.99965" ry="347.99965"/><path id="path0_fill" data-name="path0 fill" class="cls-2" d="M261.50433,607.48682A86.49559,86.49559,0,0,0,348,520.99129V434.4956H261.50439a86.49561,86.49561,0,0,0-.01762,172.99122Z"/><path id="path1_fill" data-name="path1 fill" class="cls-3" d="M175.00871,348a86.49564,86.49564,0,0,1,86.49559-86.49557H348V434.4956H261.50439A86.49565,86.49565,0,0,1,175.00871,348Z"/><path id="path1_fill-2" data-name="path1 fill-2" class="cls-4" d="M175.00871,175.00877A86.49566,86.49566,0,0,1,261.5043,88.51318H348V261.50439H261.50439a86.49564,86.49564,0,0,1-86.49568-86.49561Z"/><path id="path2_fill" data-name="path2 fill" class="cls-5" d="M348,89.019h86.49558a86.49563,86.49563,0,1,1,.01762,172.99125H348Z"/><path id="path3_fill" data-name="path3 fill" class="cls-6" d="M520.99118,348a86.49559,86.49559,0,1,1-86.49561-86.49557h0A86.49564,86.49564,0,0,1,520.99118,348Z"/></g></g></svg>