<svg xmlns="http://www.w3.org/2000/svg" xmlns:xlink="http://www.w3.org/1999/xlink" viewBox="0 0 350.50004 259.84589"><defs><style>.cls-1{mask:url(#mask);filter:url(#luminosity-noclip-6);}.cls-10,.cls-2,.cls-4,.cls-6,.cls-8{mix-blend-mode:multiply;}.cls-2{fill:url(#linear-gradient);}.cls-3{mask:url(#mask-2);filter:url(#luminosity-noclip-7);}.cls-4{fill:url(#linear-gradient-2);}.cls-5{mask:url(#mask-3);filter:url(#luminosity-noclip-8);}.cls-6{fill:url(#linear-gradient-3);}.cls-7{mask:url(#mask-4);filter:url(#luminosity-noclip-9);}.cls-8{fill:url(#linear-gradient-4);}.cls-9{mask:url(#mask-5);filter:url(#luminosity-noclip-10);}.cls-10{fill:url(#linear-gradient-5);}.cls-11{stroke:#2e3436;fill:url(#radial-gradient);}.cls-11,.cls-17,.cls-18,.cls-19,.cls-24,.cls-25{stroke-miterlimit:10;}.cls-12{mask:url(#mask-6);}.cls-13{fill:url(#linear-gradient-6);}.cls-14{opacity:0.18539;}.cls-14,.cls-20,.cls-30,.cls-32{isolation:isolate;}.cls-15{mask:url(#mask-7);}.cls-16{fill:url(#linear-gradient-7);}.cls-17,.cls-24,.cls-27{stroke:#888a85;}.cls-17{stroke-width:0.78261px;fill:url(#radial-gradient-2);}.cls-18,.cls-19,.cls-25{stroke:#000;}.cls-18{fill:url(#radial-gradient-3);}.cls-19,.cls-25{fill:#2e3436;}.cls-19{stroke-width:1.17391px;}.cls-20{opacity:0.2809;}.cls-21{mask:url(#mask-8);}.cls-22{fill:url(#linear-gradient-8);}.cls-23,.cls-30{fill:#fff;}.cls-24{stroke-width:0.66667px;fill:url(#radial-gradient-4);}.cls-26{stroke:#673907;fill:url(#linear-gradient-9);}.cls-26,.cls-27,.cls-28{stroke-linecap:round;stroke-width:2.46045px;}.cls-27{fill:url(#linear-gradient-10);}.cls-28{fill:none;stroke:#fff;stroke-linejoin:round;}.cls-29{fill:url(#radial-gradient-5);}.cls-30{opacity:0.52778;}.cls-31{mask:url(#mask-9);}.cls-32{opacity:0.42778;fill:url(#linear-gradient-11);}.cls-33{mask:url(#mask-10);}.cls-34{fill:url(#linear-gradient-12);}.cls-35{filter:url(#luminosity-noclip-5);}.cls-36{filter:url(#luminosity-noclip-4);}.cls-37{filter:url(#luminosity-noclip-3);}.cls-38{filter:url(#luminosity-noclip-2);}.cls-39{filter:url(#luminosity-noclip);}</style><filter id="luminosity-noclip" x="113.15194" y="-8320.57849" width="110.57164" height="32766" filterUnits="userSpaceOnUse" color-interpolation-filters="sRGB"><feFlood flood-color="#fff" result="bg"/><feBlend in="SourceGraphic" in2="bg"/></filter><mask id="mask" x="113.15194" y="-8320.57849" width="110.57164" height="32766" maskUnits="userSpaceOnUse"><g class="cls-39"/></mask><linearGradient id="linear-gradient" x1="216.82938" y1="99.57196" x2="131.1717" y2="82.57632" gradientTransform="matrix(1, 0, 0, -1, -3.8365, 259.50298)" gradientUnits="userSpaceOnUse"><stop offset="0" stop-color="#fff"/><stop offset="1"/></linearGradient><filter id="luminosity-noclip-2" x="39.25504" y="-8320.57849" width="239.10367" height="32766" filterUnits="userSpaceOnUse" color-interpolation-filters="sRGB"><feFlood flood-color="#fff" result="bg"/><feBlend in="SourceGraphic" in2="bg"/></filter><mask id="mask-2" x="39.25504" y="-8320.57849" width="239.10367" height="32766" maskUnits="userSpaceOnUse"><g class="cls-38"/></mask><linearGradient id="linear-gradient-2" x1="138.59192" y1="198.91091" x2="317.22282" y2="-3.86582" gradientTransform="matrix(1, 0, 0, -1, 0, 259.15698)" xlink:href="#linear-gradient"/><filter id="luminosity-noclip-3" x="6.51363" y="-8320.57849" width="62.29832" height="32766" filterUnits="userSpaceOnUse" color-interpolation-filters="sRGB"><feFlood flood-color="#fff" result="bg"/><feBlend in="SourceGraphic" in2="bg"/></filter><mask id="mask-3" x="6.51363" y="-8320.57849" width="62.29832" height="32766" maskUnits="userSpaceOnUse"><g class="cls-37"/></mask><linearGradient id="linear-gradient-3" x1="-116.60348" y1="136.5245" x2="-118.87582" y2="78.33768" gradientTransform="matrix(0.8004, -0.5995, -0.5995, -0.8004, 197.37073, 145.90775)" xlink:href="#linear-gradient"/><filter id="luminosity-noclip-4" x="328.41808" y="-8320.57849" width="10.49816" height="32766" filterUnits="userSpaceOnUse" color-interpolation-filters="sRGB"><feFlood flood-color="#fff" result="bg"/><feBlend in="SourceGraphic" in2="bg"/></filter><mask id="mask-4" x="328.41808" y="-8320.57849" width="10.49816" height="32766" maskUnits="userSpaceOnUse"><g class="cls-36"/></mask><linearGradient id="linear-gradient-4" x1="-716.11259" y1="-845.70205" x2="-758.29185" y2="-880.54274" gradientTransform="matrix(0.0673, -0.3398, -0.3398, -0.0673, 89.67507, -80.97199)" xlink:href="#linear-gradient"/><filter id="luminosity-noclip-5" x="169.03154" y="-8320.57849" width="41.979" height="32766" filterUnits="userSpaceOnUse" color-interpolation-filters="sRGB"><feFlood flood-color="#fff" result="bg"/><feBlend in="SourceGraphic" in2="bg"/></filter><mask id="mask-5" x="169.03154" y="-8320.57849" width="41.979" height="32766" maskUnits="userSpaceOnUse"><g class="cls-35"/></mask><linearGradient id="linear-gradient-5" x1="192.77241" y1="93.25639" x2="178.66611" y2="89.85729" gradientTransform="matrix(1, 0, 0, -1, 0, 259.15698)" xlink:href="#linear-gradient"/><radialGradient id="radial-gradient" cx="71.19616" cy="183.73738" r="19.22921" gradientTransform="matrix(13.6348, 0, 0, -9.9732, -851.28783, 1937.28407)" gradientUnits="userSpaceOnUse"><stop offset="0" stop-color="#857c63"/><stop offset="1" stop-color="#221f19"/></radialGradient><filter id="luminosity-noclip-6" x="113.15194" y="142.34439" width="110.57164" height="37.0102" filterUnits="userSpaceOnUse" color-interpolation-filters="sRGB"><feFlood flood-color="#fff" result="bg"/><feBlend in="SourceGraphic" in2="bg"/></filter><mask id="mask-6" x="113.15194" y="142.34439" width="110.57164" height="37.0102" maskUnits="userSpaceOnUse"><g class="cls-1"><path id="path6480" class="cls-2" d="M113.15194,164.56529c51.831,10.3666,78.226.7545,93.6739-11.17375a87.16793,87.16793,0,0,0-11.0471-11.04715s18.1001,5.0297,24.4736,13.25658c6.3553,8.20332,2.3598,13.25762.6965,23.75362-3.7026-9.2188-10.6138-12.676-11.5495-16.3389C195.50674,182.22029,160.8945,181.42259,113.15194,164.56529Z"/></g></mask><linearGradient id="linear-gradient-6" x1="216.82938" y1="99.57196" x2="131.1717" y2="82.57632" gradientTransform="matrix(1, 0, 0, -1, -3.8365, 259.50298)" gradientUnits="userSpaceOnUse"><stop offset="0"/><stop offset="1"/></linearGradient><filter id="luminosity-noclip-7" x="39.25504" y="22.82119" width="239.10367" height="181.1733" filterUnits="userSpaceOnUse" color-interpolation-filters="sRGB"><feFlood flood-color="#fff" result="bg"/><feBlend in="SourceGraphic" in2="bg"/></filter><mask id="mask-7" x="39.25504" y="22.82119" width="239.10367" height="181.1733" maskUnits="userSpaceOnUse"><g class="cls-3"><path class="cls-4" d="M175.42594,203.99449c-.7768,0-1.5552-.0068-2.3403-.0195-28.7588-.4854-62.2241-10.4961-91.815-27.4668a161.09634,161.09634,0,0,1-32.0683-23.63087,41.767,41.767,0,0,1-9.6455-13.69633l-.3018-.6298.5-.1963c20.2603-7.9815,33.7305-18.8018,37.9292-30.4693a30.36776,30.36776,0,0,0,.4751-20.5874l-.0268-.082.9985-35.686.833.9047c18.1143,19.6695,40.2808,29.316,65.95752,28.6812,46.76858-1.1733,84.64458-12.6865,109.53418-33.2944a94.0266,94.0266,0,0,0,20.5625-23.669l.8076-1.3315.1192,1.5527c4.8857,63.957-2.9063,111.3716-23.1612,140.9273C236.18424,190.98379,209.82784,203.99449,175.42594,203.99449Zm-134.8052-64.9072a40.53682,40.53682,0,0,0,9.2808,13.07518c8.3057,8.12012,19.6231,16.458,31.8662,23.47852,29.4497,16.8887,62.73976,26.8516,91.3345,27.334,35.208.5762,62.0625-12.2705,79.8574-38.2383,19.6758-28.7129,27.6563-76.6724,23.1026-138.7529a95.26657,95.26657,0,0,1-19.9688,22.6084c-25.0635,20.7519-63.1523,32.3447-110.147,33.5239-25.57183.6274-47.72023-8.8213-65.88433-28.1084l-.9248,33.064c.8653,2.6655,3.3282,10.4775-.5122,21.1528C74.36244,120.06919,60.87564,131.018,40.62074,139.08729Z"/></g></mask><linearGradient id="linear-gradient-7" x1="138.59192" y1="198.91091" x2="317.22282" y2="-3.86582" gradientTransform="matrix(1, 0, 0, -1, 0, 259.15698)" gradientUnits="userSpaceOnUse"><stop offset="0" stop-color="#fff"/><stop offset="1" stop-color="#fff"/></linearGradient><radialGradient id="radial-gradient-2" cx="128.77624" cy="226.44647" r="3.51532" gradientTransform="matrix(12.9578, 0, 0, -12.9578, -1571.60275, 3010.11633)" gradientUnits="userSpaceOnUse"><stop offset="0" stop-color="#fff"/><stop offset="1" stop-color="#b9b9b0"/></radialGradient><radialGradient id="radial-gradient-3" cx="21.23123" cy="68.29156" r="4.83104" gradientTransform="matrix(6.1339, -3.5414, -4.1334, -7.1593, 178.56307, 676.91012)" gradientUnits="userSpaceOnUse"><stop offset="0" stop-color="#5b676b"/><stop offset="1" stop-color="#141718"/></radialGradient><filter id="luminosity-noclip-8" x="6.51363" y="94.17568" width="62.29832" height="69.9829" filterUnits="userSpaceOnUse" color-interpolation-filters="sRGB"><feFlood flood-color="#fff" result="bg"/><feBlend in="SourceGraphic" in2="bg"/></filter><mask id="mask-8" x="6.51363" y="94.17568" width="62.29832" height="69.9829" maskUnits="userSpaceOnUse"><g class="cls-5"><path class="cls-6" d="M50.27314,164.15859a29.73684,29.73684,0,0,1-9.106-1.5625c-8.9096-2.8799-17.7031-9.45022-24.1259-18.02541-6.4224-8.57519-10.2544-18.86229-10.5132-28.22219-.2325-8.4458,2.351-14.937,7.4712-18.7724,5.0449-3.7779,12.309-4.4317,20.4497-1.8418,8.8662,2.8208,17.6079,9.3208,23.9843,17.8339,6.3765,8.5137,10.1558,18.731,10.3687,28.0318.1953,8.543-2.4751,15.32811-7.519,19.10643A17.96341,17.96341,0,0,1,50.27314,164.15859Zm-25.1343-68.9834a17.27009,17.27009,0,0,0-10.54,3.2016c-4.8492,3.6319-7.2945,9.837-7.0708,17.9444.2529,9.1577,4.0122,19.2358,10.3139,27.64988,6.3013,8.41308,14.9151,14.85547,23.6328,17.67383,7.7173,2.49409,14.3604,1.89449,19.2085-1.73926,4.7789-3.5791,7.3067-10.07227,7.1187-18.28225-.208-9.0976-3.9146-19.105-10.1694-27.4555-6.2539-8.3506-14.8145-14.7217-23.4864-17.4805A29.88741,29.88741,0,0,0,25.13884,95.17519Z"/></g></mask><linearGradient id="linear-gradient-8" x1="-116.60348" y1="136.5245" x2="-118.87582" y2="78.33768" gradientTransform="matrix(0.8004, -0.5995, -0.5995, -0.8004, 197.37073, 145.90775)" xlink:href="#linear-gradient-7"/><radialGradient id="radial-gradient-4" cx="108.94052" cy="246.19236" r="3.5153" gradientTransform="matrix(15.2114, 0, 0, -15.2114, -1495.50079, 3820.37071)" xlink:href="#radial-gradient-2"/><linearGradient id="linear-gradient-9" x1="-851.39288" y1="-125.22692" x2="-922.63841" y2="-63.25919" gradientTransform="matrix(-0.1149, -0.3899, -0.3899, 0.1149, 95.53617, -144.20653)" gradientUnits="userSpaceOnUse"><stop offset="0" stop-color="#6e3d09"/><stop offset="0.24242" stop-color="#ea8113"/><stop offset="0.62121" stop-color="#5c3307"/><stop offset="1" stop-color="#e07c12"/></linearGradient><linearGradient id="linear-gradient-10" x1="-987.31687" y1="-206.47346" x2="-958.75017" y2="-232.9092" gradientTransform="matrix(-0.1149, -0.3899, -0.3899, 0.1149, 93.76847, -144.91363)" gradientUnits="userSpaceOnUse"><stop offset="0" stop-color="#bdbdbd"/><stop offset="0.33333" stop-color="#e2e2e2"/><stop offset="0.66667" stop-color="#a3a3a3"/><stop offset="1" stop-color="#ddd"/></linearGradient><radialGradient id="radial-gradient-5" cx="-496.04997" cy="99.55816" r="7.57918" gradientTransform="matrix(-1.3893, -4.7158, -4.5957, 1.3539, 76.51421, -2248.07072)" gradientUnits="userSpaceOnUse"><stop offset="0" stop-color="#696969"/><stop offset="1"/></radialGradient><filter id="luminosity-noclip-9" x="328.41808" y="220.52219" width="10.49816" height="20.5846" filterUnits="userSpaceOnUse" color-interpolation-filters="sRGB"><feFlood flood-color="#fff" result="bg"/><feBlend in="SourceGraphic" in2="bg"/></filter><mask id="mask-9" x="328.41808" y="220.52219" width="10.49816" height="20.5846" maskUnits="userSpaceOnUse"><g class="cls-7"><path id="path1571" class="cls-8" d="M338.91624,241.10679s-3.0047-11.2426-9.6371-17.0936c-2.3465-2.0701.6101-5.1193,2.8244-2.4413C336.88624,227.35639,338.91624,241.10679,338.91624,241.10679Z"/></g></mask><linearGradient id="linear-gradient-11" x1="-716.11259" y1="-845.70205" x2="-758.29185" y2="-880.54274" gradientTransform="matrix(0.0673, -0.3398, -0.3398, -0.0673, 89.67507, -80.97199)" xlink:href="#linear-gradient-7"/><filter id="luminosity-noclip-10" x="169.03154" y="153.61981" width="41.979" height="24.01983" filterUnits="userSpaceOnUse" color-interpolation-filters="sRGB"><feFlood flood-color="#fff" result="bg"/><feBlend in="SourceGraphic" in2="bg"/></filter><mask id="mask-10" x="169.03154" y="153.61981" width="41.979" height="24.01983" maskUnits="userSpaceOnUse"><g class="cls-9"><path id="path8532" class="cls-10" d="M169.03154,177.41359c11.5167,1.1006,21.9174-2.0937,26.2419-3.646.7555-4.2717,4.1268-12.46964,15.7371-13.00964l-4.0789-7.13814s-15.1261,10.36728-31.2719,13.42648Z"/></g></mask><linearGradient id="linear-gradient-12" x1="192.77241" y1="93.25639" x2="178.66611" y2="89.85729" gradientTransform="matrix(1, 0, 0, -1, 0, 259.15698)" xlink:href="#linear-gradient-6"/></defs><title>Asset 2</title><g id="Layer_2" data-name="Layer 2"><g id="svg11300"><g id="layer1"><path id="path4323" class="cls-11" d="M71.90024,29.21229s22.1087,45.5913,73.83077,44.3051c108.39-2.7193,127.39673-59.2612,130.116-67.4191s6.8801-6.9222,7.8421.6174c35.3508,320.8762-245.3294,183.2007-255.2976,128.5489,55.7455-16.3157,42.149-47.5876,42.149-47.5876Z"/><g class="cls-12"><path id="path6480-2" data-name="path6480" class="cls-13" d="M113.15194,164.56529c51.831,10.3666,78.226.7545,93.6739-11.17375a87.16793,87.16793,0,0,0-11.0471-11.04715s18.1001,5.0297,24.4736,13.25658c6.3553,8.20332,2.3598,13.25762.6965,23.75362-3.7026-9.2188-10.6138-12.676-11.5495-16.3389C195.50674,182.22029,160.8945,181.42259,113.15194,164.56529Z"/></g><g id="path8520" class="cls-14"><g class="cls-15"><path class="cls-16" d="M175.42594,203.99449c-.7768,0-1.5552-.0068-2.3403-.0195-28.7588-.4854-62.2241-10.4961-91.815-27.4668a161.09634,161.09634,0,0,1-32.0683-23.63087,41.767,41.767,0,0,1-9.6455-13.69633l-.3018-.6298.5-.1963c20.2603-7.9815,33.7305-18.8018,37.9292-30.4693a30.36776,30.36776,0,0,0,.4751-20.5874l-.0268-.082.9985-35.686.833.9047c18.1143,19.6695,40.2808,29.316,65.95752,28.6812,46.76858-1.1733,84.64458-12.6865,109.53418-33.2944a94.0266,94.0266,0,0,0,20.5625-23.669l.8076-1.3315.1192,1.5527c4.8857,63.957-2.9063,111.3716-23.1612,140.9273C236.18424,190.98379,209.82784,203.99449,175.42594,203.99449Zm-134.8052-64.9072a40.53682,40.53682,0,0,0,9.2808,13.07518c8.3057,8.12012,19.6231,16.458,31.8662,23.47852,29.4497,16.8887,62.73976,26.8516,91.3345,27.334,35.208.5762,62.0625-12.2705,79.8574-38.2383,19.6758-28.7129,27.6563-76.6724,23.1026-138.7529a95.26657,95.26657,0,0,1-19.9688,22.6084c-25.0635,20.7519-63.1523,32.3447-110.147,33.5239-25.57183.6274-47.72023-8.8213-65.88433-28.1084l-.9248,33.064c.8653,2.6655,3.3282,10.4775-.5122,21.1528C74.36244,120.06919,60.87564,131.018,40.62074,139.08729Z"/></g></g><path id="path4357" class="cls-17" d="M128.32584,97.87439a31.2719,31.2719,0,1,1-31.2719-31.2718A31.27189,31.27189,0,0,1,128.32584,97.87439Z"/><path id="path5198" class="cls-18" d="M66.03044,109.65679c15.1602,21.0075,15.3576,46.76666.4408,57.5348s-39.2989,2.4676-54.4591-18.53988l-.0116-.01606c-15.1602-21.00746-15.3576-46.76666-.4408-57.53476s39.2989-2.4676,54.4591,18.5399Z"/><path id="path4359" class="cls-19" d="M119.42314,102.50729a15.0568,15.0568,0,1,1-15.0568-15.0569A15.05679,15.05679,0,0,1,119.42314,102.50729Z"/><g id="path6450" class="cls-20"><g class="cls-21"><path class="cls-22" d="M50.27314,164.15859a29.73684,29.73684,0,0,1-9.106-1.5625c-8.9096-2.8799-17.7031-9.45022-24.1259-18.02541-6.4224-8.57519-10.2544-18.86229-10.5132-28.22219-.2325-8.4458,2.351-14.937,7.4712-18.7724,5.0449-3.7779,12.309-4.4317,20.4497-1.8418,8.8662,2.8208,17.6079,9.3208,23.9843,17.8339,6.3765,8.5137,10.1558,18.731,10.3687,28.0318.1953,8.543-2.4751,15.32811-7.519,19.10643A17.96341,17.96341,0,0,1,50.27314,164.15859Zm-25.1343-68.9834a17.27009,17.27009,0,0,0-10.54,3.2016c-4.8492,3.6319-7.2945,9.837-7.0708,17.9444.2529,9.1577,4.0122,19.2358,10.3139,27.64988,6.3013,8.41308,14.9151,14.85547,23.6328,17.67383,7.7173,2.49409,14.3604,1.89449,19.2085-1.73926,4.7789-3.5791,7.3067-10.07227,7.1187-18.28225-.208-9.0976-3.9146-19.105-10.1694-27.4555-6.2539-8.3506-14.8145-14.7217-23.4864-17.4805A29.88741,29.88741,0,0,0,25.13884,95.17519Z"/></g></g><path id="path6446" class="cls-23" d="M36.97594,112.15059c.0002,9.011-6.087,16.3159-13.5961,16.3162s-13.5966-7.3045-13.5968-16.3154v-.0008c-.0002-9.0109,6.087-16.3159,13.5962-16.3161s13.5965,7.3045,13.5967,16.3154Z"/><path id="path4361" class="cls-23" d="M108.999,95.55779a10.424,10.424,0,1,1-20.8479.0005v-.0005a10.424,10.424,0,0,1,20.8479-.0004Z"/><path id="path6462" class="cls-24" d="M198.34744,101.27349A36.71045,36.71045,0,1,1,161.637,64.56309,36.71049,36.71049,0,0,1,198.34744,101.27349Z"/><path id="path6464" class="cls-25" d="M187.89664,106.71209a17.67541,17.67541,0,1,1-17.6754-17.6754A17.67547,17.67547,0,0,1,187.89664,106.71209Z"/><path id="path6466" class="cls-23" d="M175.65974,98.55419a12.23679,12.23679,0,1,1-24.47357.0005v-.0005a12.23679,12.23679,0,1,1,24.47357-.0006Z"/><g id="g8463"><path id="path6937" class="cls-26" d="M273.50934,210.90829l7.1252-14.1895c-26.5068-19.3924-75.3696-33.5027-75.3696-33.5027-8.4698-3.94527-11.1428,3.6636-5.2779,8.6098C199.987,171.82589,241.77464,201.78329,273.50934,210.90829Z"/><path id="path6935" class="cls-27" d="M307.49184,223.98749l3.8144-8.444-29.5927-18.9584-2.3595-.2013-1.0202-3.2659c-4.2987,2.6921-10.5456,12.6925-8.8893,18.3148l3.1962-1.2088,1.7314,1.6733Z"/><path id="path6985" class="cls-28" d="M288.31394,207.97159l19.6477,8.4363"/><path id="path6933" class="cls-29" d="M350.5,259.84589c-9.2258-31.3169-12.498-56.1825-36.6081-53.9698-19.4294,1.7831-20.7896,29.6222-.7122,37.3043C332.52054,250.58069,350.5,259.84589,350.5,259.84589Z"/><path id="path6971" class="cls-30" d="M315.33664,208.41319a8.08806,8.08806,0,1,1-5.4729,10.044A8.08812,8.08812,0,0,1,315.33664,208.41319Z"/><path id="path6983" class="cls-23" d="M280.07024,196.90369a5.45744,5.45744,0,1,1-3.6928,6.7772A5.45735,5.45735,0,0,1,280.07024,196.90369Z"/><g class="cls-31"><path id="path1571-2" data-name="path1571" class="cls-32" d="M338.91624,241.10679s-3.0047-11.2426-9.6371-17.0936c-2.3465-2.0701.6101-5.1193,2.8244-2.4413C336.88624,227.35639,338.91624,241.10679,338.91624,241.10679Z"/></g></g><g class="cls-33"><path id="path8532-2" data-name="path8532" class="cls-34" d="M169.03154,177.41359c11.5167,1.1006,21.9174-2.0937,26.2419-3.646.7555-4.2717,4.1268-12.46964,15.7371-13.00964l-4.0789-7.13814s-15.1261,10.36728-31.2719,13.42648Z"/></g></g></g></g></svg>