<?xml version="1.0" ?><!DOCTYPE svg  PUBLIC '-//W3C//DTD SVG 1.1//EN'  'http://www.w3.org/Graphics/SVG/1.1/DTD/svg11.dtd'><svg enable-background="new 0 0 512 512" id="Layer_1" version="1.1" viewBox="0 0 512 512" xml:space="preserve" xmlns="http://www.w3.org/2000/svg" xmlns:xlink="http://www.w3.org/1999/xlink"><circle cx="256" cy="256" fill="#DD4814" id="ellipse" r="256"/><path d="M322.5,151.2c14.1,8.2,32.2,3.3,40.4-10.8c8.2-14.1,3.3-32.2-10.8-40.4  c-14.1-8.2-32.2-3.3-40.4,10.8C303.5,124.9,308.4,143,322.5,151.2z M262,342.4c-13,0-25.3-2.9-36.4-8l-20.5,36.8  c17.2,8.5,36.5,13.3,56.9,13.3c11.9,0,23.4-1.6,34.3-4.7c1.9-11.9,9-22.8,20.2-29.3s24.2-7.1,35.5-2.9  c21.9-21.5,36.1-50.8,38.2-83.3l-42.1-0.6C344.1,307.8,307.1,342.4,262,342.4L262,342.4z M262,169.6c45.1,0,82.1,34.6,86,78.7  l42.1-0.6c-2.1-32.6-16.3-61.8-38.2-83.3c-11.2,4.2-24.2,3.6-35.5-2.9c-11.2-6.5-18.3-17.4-20.2-29.3c-10.9-3-22.4-4.7-34.3-4.7  c-20.4,0-39.8,4.8-56.9,13.3l20.5,36.8C236.7,172.5,249,169.6,262,169.6L262,169.6z M175.6,256c0-29.2,14.5-55,36.7-70.7l-21.6-36.2  c-25.9,17.3-45.1,43.7-53.1,74.7c9.3,7.6,15.3,19.2,15.3,32.2s-6,24.6-15.3,32.2c8,31,27.2,57.4,53.1,74.7l21.6-36.2  C190.1,311,175.6,285.2,175.6,256L175.6,256z M322.5,360.8c-14.1,8.2-19,26.2-10.8,40.4c8.2,14.1,26.2,19,40.4,10.8  c14.1-8.2,19-26.2,10.8-40.4C354.7,357.5,336.7,352.7,322.5,360.8z M111.4,226.4c-16.3,0-29.6,13.2-29.6,29.6  c0,16.3,13.2,29.6,29.6,29.6c16.3,0,29.6-13.2,29.6-29.6C140.9,239.7,127.7,226.4,111.4,226.4" fill="#FFFFFF" id="logo"/></svg>