<?xml version="1.0" ?><!DOCTYPE svg  PUBLIC '-//W3C//DTD SVG 1.1//EN'  'http://www.w3.org/Graphics/SVG/1.1/DTD/svg11.dtd'><svg enable-background="new 0 0 512 512" height="512px" id="Layer_1" version="1.1" viewBox="0 0 512 512" width="512px" xml:space="preserve" xmlns="http://www.w3.org/2000/svg" xmlns:xlink="http://www.w3.org/1999/xlink"><g><path clip-rule="evenodd" d="M198.627,398.169l-83.444-250.333   c8.616-0.453,17.232-1.359,25.396-2.266c8.616-1.359,9.522-7.71,9.069-10.881c-0.453-2.726-3.172-8.616-10.429-7.71   c-22.216,1.813-42.175,2.719-60.767,2.719c-2.266,0-4.992,0-7.257,0c40.363-58.955,107.934-97.95,185.035-97.95   c55.775,0,106.567,20.404,146.016,54.416c-12.248,2.265-24.935,10.882-28.575,23.13c-10.873,35.372,10.437,58.502,20.42,73.914   c10.874,17.232,14.968,35.832,16.779,55.33c2.266,27.208-9.077,61.673-16.326,87.983l-23.591,70.289l-82.991-248.974   c8.624-0.453,17.232-1.359,25.403-2.266c9.062-1.359,9.515-7.71,9.062-10.881c0-2.726-2.719-8.163-10.421-7.71   c-22.231,2.266-41.729,2.719-60.321,2.719s-38.543-0.453-60.768-2.719c-7.257-0.453-9.975,4.984-10.428,7.71   c0,3.171,0.453,9.522,9.069,10.881c7.71,0.906,15.874,1.813,23.583,2.266l36.277,98.864L198.627,398.169z M480.254,256.23   c0,80.257-42.637,151-106.583,190.464l52.167-148.749c10.421-28.122,22.216-56.689,29.012-86.163   c3.625-16.326,5.453-32.652,5-49.432C472.989,190.917,480.254,222.664,480.254,256.23L480.254,256.23z M256.23,480.254   c-22.231,0-43.089-3.172-63.04-9.077l65.759-197.261l71.195,193.636C306.554,475.707,282.071,480.254,256.23,480.254   L256.23,480.254z M152.375,454.85C80.718,417.214,31.747,342.394,31.747,256.23c0-30.395,5.89-58.962,16.771-85.264L152.375,454.85   z M256.23,0C114.73,0,0,114.73,0,256.23C0,397.263,114.73,512,256.23,512C397.263,512,512,397.263,512,256.23   C512,114.73,397.263,0,256.23,0L256.23,0z" fill="#0CA3D1" fill-rule="evenodd"/></g></svg>